<mxfile host="app.diagrams.net" modified="2024-02-21T09:09:18.554Z" agent="Mozilla/5.0 (Macintosh; Intel Mac OS X 10_15_7) AppleWebKit/537.36 (KHTML, like Gecko) Chrome/121.0.0.0 Safari/537.36" version="23.1.5" etag="soQDFPIS9bBXyihELR6Z" type="github">
  <diagram name="Page-1" id="4Ttm6xuwRuSmo7v2YCB6">
    <mxGraphModel>
      <root>
        <mxCell id="0" />
        <mxCell id="1" parent="0" />
      </root>
    </mxGraphModel>
  </diagram>
</mxfile>
